<svg width="866" height="748" viewBox="0 0 866 748" fill="none" xmlns="http://www.w3.org/2000/svg">
  <path
    d="M351 216L337.5 246L322 264H300.5L267 250.5L251.5 234V204L267 179L300.5 165.5H332.5L351 185V216Z"
    fill="black" />
  <path
    d="M425.5 259.5L406.5 264L388.5 250.5L369.5 234L366 207.5L369.5 190L388.5 165.5L406.5 159H425.5L446.5 165.5L463 185V216L446.5 242L425.5 259.5Z"
    fill="black" />
  <path
    d="M524.5 259.5H509.5L486 246L474 230V204L486 185L509.5 165.5L536.5 159L558 165.5L571 185V216L564 242L548.5 254.5L524.5 259.5Z"
    fill="black" />
  <path
    d="M251.5 348.5L255 373L262 369.5L282 342.5L300.5 336.5L322 348.5L337.5 369.5L355.5 354.5L369.5 340L397.5 348.5L421 373L450 342.5L468.5 340L494 359L509.5 373L524.5 354.5L539.5 340L558 342.5L583.5 373H595V359L588 323.5L571 288.5L548.5 283L524.5 296.5L506 323.5L494 302L481 288.5L463 283L450 288.5L425.5 319L417 302L397.5 273.5L384.5 269.5L366 279L337.5 319L332.5 305.5L318.5 279L300.5 273.5L286.5 279L267 302L251.5 348.5Z"
    fill="black" />
  <path
    d="M351 216L337.5 246L322 264H300.5L267 250.5L251.5 234V204L267 179L300.5 165.5H332.5L351 185V216Z"
    stroke="black" stroke-width="8" />
  <path
    d="M425.5 259.5L406.5 264L388.5 250.5L369.5 234L366 207.5L369.5 190L388.5 165.5L406.5 159H425.5L446.5 165.5L463 185V216L446.5 242L425.5 259.5Z"
    stroke="black" stroke-width="8" />
  <path
    d="M524.5 259.5H509.5L486 246L474 230V204L486 185L509.5 165.5L536.5 159L558 165.5L571 185V216L564 242L548.5 254.5L524.5 259.5Z"
    stroke="black" stroke-width="8" />
  <path
    d="M251.5 348.5L255 373L262 369.5L282 342.5L300.5 336.5L322 348.5L337.5 369.5L355.5 354.5L369.5 340L397.5 348.5L421 373L450 342.5L468.5 340L494 359L509.5 373L524.5 354.5L539.5 340L558 342.5L583.5 373H595V359L588 323.5L571 288.5L548.5 283L524.5 296.5L506 323.5L494 302L481 288.5L463 283L450 288.5L425.5 319L417 302L397.5 273.5L384.5 269.5L366 279L337.5 319L332.5 305.5L318.5 279L300.5 273.5L286.5 279L267 302L251.5 348.5Z"
    stroke="black" stroke-width="8" />
  <path
    d="M677 148.5L643.5 117H628V97L621.5 62L600.5 50.5L585.5 55.5L550.5 21.5L508 5L465.5 9.5L476.5 27L436 14.5H405.5L385 21.5L405.5 37.5H398.5H334.5L289 55.5L295 72.5L223 103V121.5L234.5 117V131L190.5 167L202 190.5L143.5 236L148 242.5L168 236L148 302.5L85.5 342L50.5 389.5L21.5 414L4 478V591L9.5 599L21.5 564.5L28 614.5L41 628.5L50.5 576L76 628.5L85.5 569L98.5 591L103 550.5V488.5L121.5 422.5L137.5 394.5L143.5 493L148 576L183 614.5L202 619L190.5 651.5L183 713.5L190.5 730L310.5 736.5L316 721.5L283.5 678.5L305.5 665.5L398.5 656.5L436 665.5H527L522 678.5L494.5 705L489.5 736.5L550.5 743.5L614.5 736.5L621.5 634.5L653 614.5L664.5 585.5L693.5 523.5L701.5 478V364L721.5 394.5L747 449V511L721.5 564.5L716.265 591H727L747 564.5L713 628.5V651.5L727 646L755 599L783 585.5L764.5 639L769 651.5L783 639L812.5 591L805.5 628.5L817 634.5L861.5 546V459.5L847.5 373.5L776 310.5L701.5 281.5L693.5 180L677 148.5Z"
    stroke="black" stroke-width="8" />
</svg>