<svg width="808" height="699" viewBox="0 0 808 699" fill="none" xmlns="http://www.w3.org/2000/svg">
  <path
    d="M631.872 138.882L600.618 109.493H586.157V90.8335L580.093 58.1794L560.501 47.4502L546.507 52.1151L513.854 20.394L474.204 5L434.554 9.19838L444.816 25.5254L407.032 13.8632H378.577L359.452 20.394L378.577 35.3216H372.047H312.338L269.889 52.1151L275.487 67.9756L208.315 96.4313V113.691L219.044 109.493V122.555L177.994 156.142L188.723 178.066L134.146 220.517L138.344 226.581L157.003 220.517L138.344 282.559L80.035 319.412L47.3819 363.728L20.3265 386.586L4 446.296V551.722L9.1312 559.186L20.3265 526.998L26.3907 573.647L38.519 586.708L47.3819 537.727L71.172 586.708L80.035 531.196L92.1633 551.722L96.3615 513.936V456.092L113.621 394.516L128.548 368.393L134.146 460.29L138.344 537.727L170.997 573.647L188.723 577.845L177.994 608.167L170.997 666.011L177.994 681.405L289.948 687.469L295.079 673.475L264.758 633.357L285.283 621.228L372.047 612.831L407.032 621.228H491.93L487.265 633.357L461.609 658.081L456.945 687.469L513.854 694L573.563 687.469L580.093 592.306L609.481 573.647L620.21 546.59L647.265 488.746L654.729 446.296V339.937L673.388 368.393L697.178 419.24V477.084L673.388 526.998L668.504 551.722H678.519L697.178 526.998L665.458 586.708V608.167L678.519 603.035L704.641 559.186L730.764 546.59L713.504 596.504L717.703 608.167L730.764 596.504L758.286 551.722L751.755 586.708L762.484 592.306L804 509.738V429.036L790.939 348.8L724.233 290.023L654.729 262.967L647.265 168.27L631.872 138.882Z"
    fill="white" stroke="black" stroke-width="8" />
</svg>