<svg width="800" height="800" viewBox="0 0 800 800" fill="none" xmlns="http://www.w3.org/2000/svg">
  <g clip-path="url(#clip0_1_2)">
    <path fill-rule="evenodd" clip-rule="evenodd"
      d="M593.7 450C582.574 492.918 557.52 530.931 522.465 558.077C487.41 585.223 444.337 599.968 400 600C355.663 599.968 312.59 585.223 277.535 558.077C242.48 530.931 217.426 492.918 206.3 450H593.7ZM0 400C0 179.1 179.5 0 400 0C620.9 0 800 179.5 800 400C800 620.9 620.5 800 400 800C179.1 800 0 620.5 0 400ZM100 400C100 565.35 234.3 700 400 700C565.35 700 700 565.7 700 400C700 234.65 565.7 100 400 100C234.65 100 100 234.3 100 400ZM250 250H350V350H250V250ZM450 250H550V350H450V250Z"
      fill="white" />
  </g>
  <rect x="0.5" y="0.5" width="799" height="799" stroke="black" />
  <defs>
    <clipPath id="clip0_1_2">
      <rect width="800" height="800" fill="white" />
    </clipPath>
  </defs>
</svg>